<svg xmlns="http://www.w3.org/2000/svg" version="1.1" xmlns:xlink="http://www.w3.org/1999/xlink" xmlns:svgjs="http://svgjs.dev/svgjs" width="135" height="135"><svg id="SvgjsSvg1003" enable-background="new 0 0 135 135" viewBox="0 0 135 135" xmlns="http://www.w3.org/2000/svg"><g id="SvgjsG1002"><g><g><path d="m131.5 67.4949799c0 35.3466797-28.6481781 64.0051422-63.9948578 64.0051422s-64.0051422-28.6584626-64.0051422-64.0051422 28.6584625-63.9951022 64.0051422-63.9951022 63.9948578 28.6484263 63.9948578 63.9951022z" fill="#fc545d"></path></g></g><g><g><ellipse cx="67.5" cy="67.5" fill="#f14448" rx="49.2" ry="49.2" transform="matrix(.383 -.924 .924 .383 -20.693 104.031)"></ellipse></g></g><g><g><g><g><path d="m116.1843338 103.6052322c0 1.8844528-1.5373993 3.4217911-3.4217987 3.4217911h-90.5350018c-1.8843956 0-3.4118652-1.5373383-3.4118652-3.4217911 0-1.8215942 1.4715424-3.4119263 3.4118652-3.4119263h90.5350037c1.8843975.0000001 3.4217968 1.5274049 3.4217968 3.4119263z" fill="#24272b"></path></g></g><g><g><path d="m116.0157928 104.6466446c-.436348 1.3786697-1.7357101 2.3803787-3.2532578 2.3803787h-90.5350017c-1.8843956 0-3.4118652-1.5373383-3.4118652-3.4217911 0-1.5035706.9878311-2.8066864 2.3803158-3.2532578-.7167397 2.1529999.9059563 4.4632721 3.2433281 4.4632721 96.4731483-.0629195 90.6144981.1519471 91.5764808-.1686019z" fill="#13181e"></path></g></g><g><g><path d="m116.1843338 50.1749191c0 1.8844566-1.5373993 3.4119263-3.4217987 3.4119263h-90.5350018c-1.8843956 0-3.4118652-1.5274696-3.4118652-3.4119263 0-1.8516273 1.5009193-3.4218521 3.4118652-3.4218521h90.5350037c1.8843975 0 3.4217968 1.5373345 3.4217968 3.4218521z" fill="#24272b"></path></g></g><g><g><path d="m116.0157928 51.2163391c-.436348 1.3786659-1.7357101 2.3705063-3.2532578 2.3705063h-90.5350017c-1.8843956 0-3.4118652-1.5274696-3.4118652-3.4119263 0-1.5131416 1.0074902-2.8387527 2.3803158-3.2532578-.7161465 2.1512222.9013748 4.4533424 3.2433281 4.4533424 96.588192-.0629882 90.5736503.1450769 91.5764808-.1586646z" fill="#13181e"></path></g></g><g><g><path d="m22.106 53.591h90.783v46.598h-90.783z" fill="#ffb32c"></path></g></g><g><g><path d="m112.8888702 56.566555v40.6472054h-78.8809585c-4.9299927 0-8.9265404-3.9965515-8.9265404-8.9265442v-22.7941208c0-4.9299927 3.9965477-8.9265404 8.9265404-8.9265404z" fill="#ffbc50"></path></g></g><g><g><path d="m111.3694534 42.4938469v4.2627907h-87.7441845v-4.2627907c0-2.1911087 1.7762432-3.9673538 3.9673519-3.9673538h79.8094864c2.1911087 0 3.9673462 1.7762451 3.9673462 3.9673538z" fill="#24272b"></path></g></g><g><g><path d="m111.3738174 44.5412254v2.2118416h-87.7476368v-4.255024c0-1.6662827 1.0313072-3.094532 2.4892807-3.6796799-.178463.4463387-.2775021.9422569-.2775021 1.4579697v.0000076c0 2.3554306 1.9094543 4.2648849 4.2648869 4.2648849h81.2709713z" fill="#13181e"></path></g></g><g><g><g><g><path d="m45.7423935 35.9926682v2.5380211h-15.7893143v-2.5380211c0-.5477791.4440594-.9918404.9918365-.9918404h13.8056374c.5477791 0 .9918404.4440613.9918404.9918404z" fill="#43a1ff"></path></g></g><g><g><path d="m43.3535042 28.8117695v6.1890583h-11.0115395v-6.1890583c0-1.0955544.8881226-1.9836769 1.9836769-1.9836769h7.0441895c1.0955505 0 1.9836731.8881225 1.9836731 1.9836769z" fill="#43a1ff"></path></g></g><g><g><path d="m43.3524857 33.3940544v1.6067734h-11.0094986v-6.1890583c0-.971983.7041664-1.7852974 1.6366768-1.9538918-.0198555.109087-.0297852.2281017-.0297852.3471184v.0000057c0 3.4181194 2.7709351 6.1890526 6.1890564 6.1890526z" fill="#2c8cff"></path></g></g></g><g><g><g><path d="m105.0416489 35.9926682v2.5380211h-15.7893143v-2.5380211c0-.5477791.4440613-.9918404.9918365-.9918404h13.8056335c.547783 0 .9918443.4440613.9918443.9918404z" fill="#4fe88d"></path></g></g><g><g><path d="m102.6527557 28.8117695v6.1890583h-11.0115356v-6.1890583c0-1.0955544.8881226-1.9836769 1.9836731-1.9836769h7.0441895c1.0955505 0 1.983673.8881225 1.983673 1.9836769z" fill="#4fe88d"></path></g></g><g><g><path d="m102.651741 33.3940544v1.6067734h-11.0094986v-6.1890583c0-.971983.7041626-1.7852974 1.636673-1.9538918-.498085 2.7364464 2.1584015 6.5361767 6.1592712 6.5361767z" fill="#35d175"></path></g></g></g></g><g><g><g><path d="m86.0156021 38.5308723h-4.9591904v-6.399971c0-.8203983-.6673584-1.4877567-1.4877548-1.4877567h-24.1421547c-.8203964 0-1.4877548.6673584-1.4877548 1.4877567v6.399971h-4.9591904v-6.399971c0-3.5547314 2.8922119-6.4469471 6.4469452-6.4469471h24.1421547c3.5547256 0 6.4469452 2.8922157 6.4469452 6.4469471z" fill="#fff"></path></g></g></g></g><g><g><path d="m48.1660576 76.8880081c0 1.2952347-1.0532951 2.3526688-2.3526688 2.3526688h-5.4895554l.0418663 5.5522919c.0104637 1.3070374-1.0351639 2.3631287-2.3422012 2.3735962h-.0314026c-1.2965698 0-2.3526649-1.0456314-2.3631325-2.3317947l-.0416107-5.5940933h-5.7093544c-1.2965698 0-2.3422012-1.0560989-2.3422012-2.3526688 0-1.2996445 1.0401936-2.3526688 2.3422012-2.3526688h5.6779556l-.0418663-5.5940933c-.0104675-1.3070374 1.0456314-2.3736038 2.3422012-2.3736038h.0418663c1.2861023 0 2.3422012 1.0456314 2.3526649 2.3317337l.0418663 5.6359634h5.5207024c1.2968255 0 2.3526689 1.0560989 2.3526689 2.3526687z" fill="#fff"></path></g></g><g><g><path d="m28.9056339 76.8880081c0 1.2965698 1.0456295 2.3526688 2.3422012 2.3526688h-1.3698368c-1.2965698 0-2.3422012-1.0560989-2.3422012-2.3526688 0-1.2996445 1.0401936-2.3526688 2.3422012-2.3526688h1.3698368c-1.3098735.0000001-2.3422012 1.0613099-2.3422012 2.3526688z" fill="#e5f5f9"></path></g></g><g><g><path d="m36.9255333 74.5353394h-1.3695793l-.0418663-5.5940933c-.0104675-1.3070374 1.0456314-2.3736038 2.3422012-2.3736038h.0418663c.2300072 0 .4600143.0313339.6690903.0941391-.98283.2927399-1.6937866 1.2024307-1.6835785 2.2794647z" fill="#e5f5f9"></path></g></g><g><g><path d="m38.6719093 87.0619659c-.2090759.073204-.4288712.104599-.6484108.104599h-.0314026c-1.2965698 0-2.3526649-1.0456314-2.3631325-2.3317947l-.0416107-5.5940933h1.3695831l.0418625 5.5940933c.0104676 1.0456314.7109605 1.9344482 1.673111 2.2271957z" fill="#e5f5f9"></path></g></g><g><g><path d="m107.4636917 76.8880081c0 1.2952347-1.0532913 2.3526688-2.3526688 2.3526688h-15.9351348c-1.2968216 0-2.342453-1.0560989-2.342453-2.3526688 0-1.30233 1.0428696-2.3526688 2.342453-2.3526688h15.9351349c1.2968292.0000001 2.3526687 1.056099 2.3526687 2.3526688z" fill="#fff"></path></g></g><g><g><path d="m92.5009232 79.2406769h-3.3250351c-1.2968216 0-2.342453-1.0560989-2.342453-2.3526688 0-1.30233 1.0428696-2.3526688 2.342453-2.3526688h3.3250351c-1.2998657 0-2.3422012 1.0504837-2.3422012 2.3526688-.0000001 1.2965698 1.0456313 2.3526688 2.3422012 2.3526688z" fill="#d3e6ed"></path></g></g><g opacity=".3"><g><g><g><path d="m107.4636917 41.5727463c0 .66922-.5437469 1.2129669-1.2023697 1.2129669h-2.290123c-.6690979 0-1.2128448-.5437469-1.2128448-1.2129669 0-.6691551.5437469-1.2129021 1.2128448-1.2129021h2.290123c.6586228 0 1.2023697.543747 1.2023697 1.2129021z" fill="#fff"></path></g></g></g><g><g><g><path d="m99.9703369 42.7814827h-19.2378769c-.6679764 0-1.2084885-.5405197-1.2084885-1.2084961s.5405121-1.2084923 1.2084885-1.2084923h19.2378769c.6679764 0 1.2084885.5405159 1.2084885 1.2084923s-.5405121 1.2084961-1.2084885 1.2084961z" fill="#fff"></path></g></g></g></g><g opacity=".3"><g><g><g><path d="m45.5277367 50.1185417h-19.2378731c-.6679745 0-1.2084923-.5405197-1.2084923-1.2084961 0-.6679726.5405178-1.2084923 1.2084923-1.2084923h19.2378731c.6679764 0 1.2084923.5405197 1.2084923 1.2084923-.0000001.6679764-.540516 1.2084961-1.2084923 1.2084961z" fill="#fff"></path></g></g></g></g><g><g opacity=".3"><g><g><g><path d="m106.7758179 104.1121979-17.0374222-.0009003c-.7060013-.0000229-1.2772827-.5713043-1.2772675-1.2772675.0000076-.7059708.571312-1.2772064 1.2773132-1.2771759l17.0374146.0009003c.7060089.0000229 1.2772827.5713043 1.2772751 1.2772675-.0000153.7059707-.5713119 1.2772064-1.2773132 1.2771759z" fill="#fff"></path></g></g></g></g><g opacity=".3"><g><g><g><path d="m85.8146896 104.1121979-2.3985977-.0009003c-.7060089-.0000229-1.2772827-.5713043-1.2772751-1.2772675.0000153-.7059708.571312-1.2772064 1.2773132-1.2771759l2.3986053.0009003c.7060013.0000229 1.2772751.5713043 1.2772675 1.2772675-.0000152.7059707-.5713119 1.2772064-1.2773132 1.2771759z" fill="#fff"></path></g></g></g></g></g><g><g><g><path d="m72.2633286 75.7817764h3.5810165c.8693161 0 1.387619.9690933.9050064 1.6921463l-10.771431 16.1379623c-.6374359.9550171-2.1277275.3995743-1.9846115-.7396774l1.5772247-12.5552521c.085907-.6838379-.4472046-1.2881165-1.1364136-1.2881165h-5.2833939c-.768383 0-1.294693-.7748566-1.0114708-1.4891434l6.1939507-15.4890862c.1644363-.4147072.5653534-.687027 1.0114746-.687027h9.398941c.768364 0 1.2946701.7748222 1.0114975 1.4890976l-4.5565186 11.3616295c-.2980803.7518694.2559282 1.5674669 1.064728 1.5674669z" fill="#4fe88d"></path></g></g><g><g><path d="m68.9969406 74.2093048 4.5632706-11.354023c.2817841-.7112617-.2418137-1.4896889-1.0203247-1.4896889h2.2011948c.7650757 0 1.3017807.7784271 1.0199966 1.4896889l-4.5632706 11.354023c-.2952194.7515564.2552414 1.5702057 1.0602951 1.5702057h-2.2008667c-.8053741 0-1.3555145-.8186493-1.0602951-1.5702057z" fill="#35d175"></path></g></g><g><g><path d="m76.7542038 77.4705429-10.7769394 16.1452637c-.5501328.832077-1.771637.5099106-1.9728165-.3489609l10.5485611-15.7963028c.4832916-.7246933-.039978-1.6910324-.9125214-1.6910324h2.2011948c.8722153 0 1.395485.9663391.9125214 1.6910324z" fill="#35d175"></path></g></g><g opacity=".3"><g><g><g><path d="m65.697731 66.9876862c-.5799484-.2310944-.8625565-.8890533-.6299896-1.4690018l.4224472-1.0568542c.2310944-.5784683.8949356-.8640251 1.4689941-.6299896.5799484.2310944.8625565.8890533.6299896 1.4690018l-.4224472 1.0568542c-.2356643.589157-.9053954.8602752-1.4689941.6299896z" fill="#fff"></path></g></g></g><g><g><g><path d="m62.190094 75.7589874c-.5799484-.2310944-.8625603-.8890533-.6299934-1.4690018l2.3771858-5.94664c.2325668-.5799484.8919983-.8669739 1.4690018-.6299896.5799408.2310944.8625565.8890533.6299896 1.4689941l-2.3771858 5.9466476c-.2356644.5891572-.9053956.8602754-1.468998.6299897z" fill="#fff"></path></g></g></g></g></g></g></g></svg><style>@media (prefers-color-scheme: light) { :root { filter: none; } }
@media (prefers-color-scheme: dark) { :root { filter: none; } }
</style></svg>